<svg width="1439" height="1051" viewBox="0 0 1439 1051" fill="none" xmlns="http://www.w3.org/2000/svg">
<path opacity="0.4" d="M1441 725.648C1441 725.648 1425.8 749.103 1355.23 894.32C1324.47 957.866 1289.63 1003.12 1252.76 1027.45C1226.35 1044.81 1199.26 1052.07 1172.19 1049.03C1151.95 1046.72 1131.86 1037.84 1112.3 1022.56C1090.51 1006.39 1069.8 979.934 1051 944.258C1016.41 878.341 992.19 789.352 954.931 677.692C926.865 593.657 896.331 516.799 863.67 447.98C846.372 411.027 826.169 366.482 802.817 320.84C740.338 198.393 660.39 65.36 564.458 19.4177C531.906 3.38239 498.831 -1.9783 465.862 3.4377C460.811 4.2367 455.795 5.4352 450.848 6.83344C401.861 20.5163 355.193 56.7708 307.521 104.91C271.854 140.466 238.124 184.81 204.67 226.458C190.659 244.236 178.136 260.415 166.823 275.596C98.4984 367.581 47.6685 431.325 0.999931 452.898" stroke="#B884FF" stroke-width="2" stroke-miterlimit="10"/>
</svg>
