<svg width="1439" height="1051" viewBox="0 0 1439 1051" fill="none" xmlns="http://www.w3.org/2000/svg">
<path opacity="0.4" d="M1 725.29C1 725.29 16.1968 748.745 86.7705 893.962C117.533 957.508 152.365 1002.76 189.241 1027.1C215.654 1044.45 242.744 1051.71 269.813 1048.67C290.055 1046.36 310.143 1037.49 329.696 1022.2C351.486 1006.03 372.199 979.576 390.999 943.9C425.594 877.983 449.81 788.994 487.069 677.334C515.135 593.299 545.669 516.441 578.33 447.622C595.628 410.669 615.831 366.124 639.183 320.482C701.662 198.035 781.61 65.002 877.542 19.0597C910.094 3.02439 943.169 -2.3363 976.138 3.0797C981.189 3.8787 986.205 5.0772 991.152 6.47544C1040.14 20.1583 1086.81 56.4128 1134.48 104.552C1170.15 140.108 1203.88 184.452 1237.33 226.1C1251.34 243.878 1263.86 260.057 1275.18 275.238C1343.5 367.223 1394.33 430.967 1441 452.54" stroke="#2388FF" stroke-width="2" stroke-miterlimit="10"/>
</svg>
