<svg width="28" height="29" viewBox="0 0 28 29" fill="none" xmlns="http://www.w3.org/2000/svg">
<path d="M18.6577 5.17361C16.9646 5.24807 15.4461 5.91719 14.1302 7.1494L13.9937 7.28179L13.8516 7.14414C12.4403 5.83869 10.821 5.16663 9.02409 5.16663C5.34067 5.16663 2.33398 8.1536 2.33398 11.8367C2.33398 15.4387 3.6492 17.1469 9.54681 21.8068L12.6828 24.2541C13.4576 24.858 14.5437 24.858 15.3185 24.2541L18.0766 22.1045L19.1654 21.2415C24.4594 17.0013 25.6673 15.2886 25.6673 11.8367C25.6673 8.1536 22.6606 5.16663 18.9772 5.16663L18.6577 5.17361ZM18.9772 7.26663C21.5039 7.26663 23.5673 9.3165 23.5673 11.8367L23.5615 12.1793C23.473 14.6953 22.3227 16.0773 17.1344 20.1735L14.0275 22.5978C14.0117 22.6101 13.9896 22.6101 13.9738 22.5978L11.2156 20.4481L10.1961 19.641C5.36356 15.7806 4.43398 14.4612 4.43398 11.8367C4.43398 9.3165 6.49738 7.26663 9.02409 7.26663C10.5792 7.26663 11.9482 7.98714 13.1884 9.50108C13.6112 10.0173 14.4021 10.0133 14.8197 9.49277C16.0294 7.98488 17.3942 7.26663 18.9772 7.26663Z" fill="#99A2AD"/>
</svg>
