<svg xmlns="http://www.w3.org/2000/svg" width="161" height="36" fill="none"><path fill="#FFDC4A" d="m59 5 79.168-3.88c10.384-.51 15.576-.764 18.129 2.527 2.553 3.292 1.014 8.258-2.063 18.189l-.744 2.4c-1.682 5.429-2.523 8.144-4.64 9.704-2.117 1.56-4.959 1.56-10.643 1.56H61c14.945-5.128 13.978-26.58-1.367-30.345L59 5Z"/><path fill="#000" d="M9.432 26V11.576H8.136c-2.376 0-3.624 1.2-3.624 2.976 0 2.016.864 2.952 2.64 4.152l1.464.984L4.392 26H1.248l3.792-5.64c-2.184-1.56-3.408-3.072-3.408-5.64 0-3.216 2.232-5.4 6.48-5.4h4.224V26H9.432Zm38.136-.816c-.84.576-2.184 1.056-4.008 1.056-3.648 0-5.712-2.04-5.712-6.24 0-3.648 1.656-6.312 5.136-6.312 2.856 0 4.704 1.584 4.704 5.784v1.512H40.8c.12 2.016.912 3 3 3 1.392 0 2.88-.528 3.768-1.128v2.328Zm17.856 1.056c-3.816 0-5.664-2.232-5.664-6.264 0-3.672 1.896-6.288 5.544-6.288 1.416 0 2.472.24 3.072.576v2.424c-.576-.36-1.656-.744-2.76-.744-1.872 0-2.904 1.344-2.904 3.96 0 2.496.84 4.08 2.88 4.08 1.2 0 2.064-.312 2.784-.816v2.328c-.696.504-1.632.744-2.952.744ZM21.408 13.928h2.856V26h-2.856v-5.04h-3.816V26h-2.856V13.928h2.856v4.776h3.816v-4.776Zm15.744 9.816v5.016h-2.64V26h-6.408v2.76h-2.64v-5.016h.888c1.008-2.016 1.2-5.832 1.2-8.784v-1.032h8.328v9.816h1.272ZM56.688 26l-4.224-5.928V26h-2.856V13.928h2.856v5.568l4.032-5.568h2.88l-4.032 5.568L59.928 26h-3.24ZM42.936 15.944c-1.368 0-2.064 1.008-2.136 2.928h3.984v-.24c0-1.512-.432-2.688-1.848-2.688Zm-9.912 7.8v-7.56H30v.36c0 2.088-.216 5.376-1.008 7.2h4.032ZM74.938 9.32h2.832v12.216l5.4-12.216h3.168V26h-2.832V13.88L78.154 26h-3.216V9.32ZM93.415 26h-4.752V13.928h4.8c2.64 0 4.008 1.008 4.008 3.072 0 1.44-.816 2.352-2.112 2.712 1.608.288 2.568 1.2 2.568 2.784 0 2.304-1.68 3.504-4.512 3.504Zm-.36-9.912H91.52v2.688h1.44c1.08 0 1.704-.504 1.704-1.344 0-.912-.576-1.344-1.608-1.344Zm.048 4.776H91.52v2.976h1.584c1.152 0 1.872-.432 1.872-1.536 0-1.008-.648-1.44-1.872-1.44Zm15.689 4.32c-.84.576-2.184 1.056-4.008 1.056-3.648 0-5.712-2.04-5.712-6.24 0-3.648 1.656-6.312 5.136-6.312 2.856 0 4.704 1.584 4.704 5.784v1.512h-6.888c.12 2.016.912 3 3 3 1.392 0 2.88-.528 3.768-1.128v2.328Zm-4.632-9.24c-1.368 0-2.064 1.008-2.136 2.928h3.984v-.24c0-1.512-.432-2.688-1.848-2.688Zm13.257-2.016h2.856V26h-2.856v-5.04h-3.816V26h-2.856V13.928h2.856v4.776h3.816v-4.776Zm14.034 2.256h-3.36V26h-2.856v-9.816h-3.36v-2.256h9.576v2.256Zm5.951 10.056c-3.816 0-5.664-2.232-5.664-6.264 0-3.672 1.896-6.288 5.544-6.288 1.416 0 2.472.24 3.072.576v2.424c-.576-.36-1.656-.744-2.76-.744-1.872 0-2.904 1.344-2.904 3.96 0 2.496.84 4.08 2.88 4.08 1.2 0 2.064-.312 2.784-.816v2.328c-.696.504-1.632.744-2.952.744Z"/></svg>